<svg width="500" height="500" viewBox="0 0 500 500" fill="none" xmlns="http://www.w3.org/2000/svg">
<path d="M35.3398 423.9V449H41.1298C40.8262 446.359 40.8262 443.691 41.1298 441.05C41.6798 438.1 47.9698 430.48 47.7798 423.94L35.3398 423.9Z" fill="#7E7E7E"/>
<path d="M81.6602 423.9V449H87.4501C87.1465 446.359 87.1465 443.691 87.4501 441.05C88.0001 438.1 94.2902 430.48 94.1002 423.94L81.6602 423.9Z" fill="#C7C7C7"/>
<path d="M126.999 423.9V449H121.199C121.497 446.358 121.497 443.692 121.199 441.05C120.639 438.1 114.359 430.48 114.539 423.94L126.999 423.9Z" fill="#7E7E7E"/>
<path d="M167.077 423.9V449H161.287C161.585 446.358 161.585 443.692 161.287 441.05C160.737 438.1 154.447 430.48 154.637 423.94L167.077 423.9Z" fill="#C7C7C7"/>
<path d="M170.118 300.13H31.3984V424.7H170.118V300.13Z" fill="#A5A5A5"/>
<path d="M132.75 300.13L133.78 424.7H170.12V300.13H132.75Z" fill="#C7C7C7"/>
<path d="M126.697 309.3H37.6367V341H126.697V309.3Z" fill="#7E7E7E"/>
<path d="M126.697 347.31H37.6367V379.01H126.697V347.31Z" fill="#7E7E7E"/>
<path d="M126.697 385.33H37.6367V417.03H126.697V385.33Z" fill="#7E7E7E"/>
<path d="M71.7775 264.34L67.9375 299.99H117.158L121.237 264.34H71.7775Z" fill="#C7C7C7"/>
<path d="M73.8103 266.9L70.0703 298.09H114.49L118.08 266.9H73.8103Z" fill="#C7C7C7"/>
<path d="M81.2766 272.15L78.9766 292.85H107.007L108.447 272.15H81.2766Z" fill="#7E7E7E"/>
<path d="M119.48 279.69L129.65 300.13L117.16 299.99L119.48 279.69Z" fill="#7E7E7E"/>
<path d="M85.4301 326.8C85.4321 327.445 85.2426 328.076 84.8856 328.614C84.5286 329.151 84.0201 329.571 83.4246 329.819C82.8291 330.067 82.1733 330.133 81.5403 330.008C80.9073 329.884 80.3255 329.574 79.8685 329.119C79.4116 328.663 79.1001 328.082 78.9735 327.449C78.8469 326.817 78.9109 326.161 79.1574 325.565C79.4038 324.968 79.8216 324.459 80.3579 324.1C80.8943 323.741 81.5249 323.55 82.1701 323.55C83.033 323.55 83.8607 323.892 84.4718 324.501C85.0829 325.11 85.4275 325.937 85.4301 326.8V326.8Z" fill="#C7C7C7"/>
<path d="M85.4302 365.2C85.4302 365.845 85.239 366.475 84.8808 367.011C84.5225 367.547 84.0134 367.965 83.4177 368.212C82.822 368.459 82.1665 368.523 81.5342 368.397C80.9018 368.272 80.3209 367.961 79.865 367.505C79.4091 367.049 79.0986 366.468 78.9728 365.836C78.847 365.204 78.9116 364.548 79.1583 363.952C79.405 363.357 79.8229 362.848 80.359 362.489C80.8951 362.131 81.5254 361.94 82.1702 361.94C82.5986 361.939 83.0231 362.022 83.4193 362.185C83.8154 362.349 84.1753 362.589 84.4783 362.892C84.7813 363.195 85.0213 363.555 85.1847 363.951C85.3481 364.347 85.4315 364.771 85.4302 365.2V365.2Z" fill="#C7C7C7"/>
<path d="M85.4302 403.59C85.4302 404.234 85.239 404.865 84.8808 405.401C84.5225 405.937 84.0134 406.355 83.4177 406.601C82.822 406.848 82.1665 406.913 81.5342 406.787C80.9018 406.661 80.3209 406.351 79.865 405.895C79.4091 405.439 79.0986 404.858 78.9728 404.226C78.847 403.593 78.9116 402.938 79.1583 402.342C79.405 401.746 79.8229 401.237 80.359 400.879C80.8951 400.521 81.5254 400.33 82.1702 400.33C83.0348 400.33 83.864 400.673 84.4753 401.284C85.0867 401.896 85.4302 402.725 85.4302 403.59Z" fill="#C7C7C7"/>
<path d="M126.56 97.6296L47.9102 96.8696L50.1002 199.37L128.75 199.66L126.56 97.6296Z" fill="#C7C7C7"/>
<path d="M121.487 102.2L52.6367 100.42L54.6267 193.38L123.457 194.23L121.487 102.2Z" fill="#C7C7C7"/>
<path d="M109.737 116.09L64.0469 115.33L65.4469 180.31L111.087 179.33L109.737 116.09Z" fill="#7E7E7E"/>
<path d="M65.4469 180.31L110.377 145.95L64.0469 115.33L65.4469 180.31Z" fill="#A5A5A5"/>
<path d="M465.01 44.1998L396 43.5298L397.93 133.46L466.92 133.71L465.01 44.1998Z" fill="#C7C7C7"/>
<path d="M460.548 48.2199L400.148 46.6499L401.898 128.2L462.278 128.94L460.548 48.2199Z" fill="#C7C7C7"/>
<path d="M450.238 60.4L410.168 59.73L411.388 116.73L451.428 115.88L450.238 60.4Z" fill="#7E7E7E"/>
<path d="M411.388 116.73L450.808 86.59L410.168 59.73L411.388 116.73Z" fill="#A5A5A5"/>
<path d="M387.709 382.3C387.419 383.18 397.709 422.3 397.709 422.3L404.769 420.83L395.059 382.3H387.709Z" fill="#7E7E7E"/>
<path d="M442.417 376.71L428.297 422.3H436.537L450.067 379.95L442.417 376.71Z" fill="#A5A5A5"/>
<path d="M455.36 369.65L439.18 422.3H447.42L463.01 372.89L455.36 369.65Z" fill="#7E7E7E"/>
<path d="M392.707 419.07L400.947 447.6H442.417L450.067 419.07H392.707Z" fill="#C7C7C7"/>
<path d="M414.097 419.07C414.061 418.972 414.031 418.872 414.007 418.77L413.787 417.9C413.597 417.1 413.337 415.97 412.997 414.53L410.147 402.07L400.837 360.52L401.087 360.73H393.827L394.077 360.41C397.767 376.76 401.077 391.41 403.447 401.99C404.607 407.26 405.547 411.51 406.207 414.49C406.507 415.94 406.757 417.07 406.927 417.88C406.997 418.25 407.057 418.54 407.097 418.76C407.113 418.863 407.113 418.967 407.097 419.07C407.061 418.972 407.031 418.872 407.007 418.77C406.947 418.55 406.877 418.26 406.787 417.9C406.587 417.1 406.317 415.97 405.967 414.53C405.277 411.53 404.287 407.32 403.057 402.07C400.627 391.49 397.277 376.86 393.537 360.52L393.457 360.21H401.257L401.307 360.41C404.897 376.76 408.127 391.41 410.457 401.99C411.587 407.26 412.507 411.51 413.147 414.49C413.447 415.94 413.677 417.07 413.847 417.88L414.017 418.76C414.06 418.858 414.087 418.963 414.097 419.07V419.07Z" fill="#C7C7C7"/>
<path d="M454.629 448.79C454.629 448.93 359.689 449.05 242.629 449.05C125.569 449.05 30.6289 448.93 30.6289 448.79C30.6289 448.65 125.549 448.53 242.679 448.53C359.809 448.53 454.629 448.65 454.629 448.79Z" fill="#263238"/>
<path d="M427.33 175.85C427.101 175.754 426.863 175.68 426.62 175.63C425.905 175.469 425.164 175.469 424.45 175.63C423.292 175.928 422.215 176.482 421.3 177.25C420.054 178.328 418.976 179.585 418.1 180.98C416.05 184.12 414.44 188.46 412.56 193.52C410.384 199.298 408.502 205.182 406.92 211.15V211.15C406.625 211.701 406.232 212.192 405.76 212.6C405.516 212.822 405.227 212.989 404.913 213.089C404.599 213.189 404.267 213.22 403.94 213.18C403.297 213.017 402.717 212.669 402.27 212.18C401.8 211.75 401.36 211.29 400.92 210.82C400.051 209.865 399.126 208.964 398.15 208.12C397.206 207.212 395.949 206.7 394.64 206.69C393.984 206.802 393.36 207.05 392.807 207.419C392.254 207.787 391.785 208.268 391.43 208.83C390.72 210.045 390.337 211.423 390.32 212.83C390.15 215.69 390.98 218.58 391.48 221.57C391.98 224.56 392.61 227.63 393.19 230.76C393.49 232.33 393.78 233.91 394.08 235.51L394.53 237.93C394.667 238.353 394.712 238.8 394.662 239.242C394.612 239.683 394.468 240.109 394.24 240.49C394.089 240.691 393.882 240.841 393.644 240.922C393.407 241.002 393.151 241.008 392.91 240.94C392.478 240.815 392.074 240.607 391.72 240.33L389.72 238.81C388.358 237.782 386.943 236.827 385.48 235.95C384.015 235.038 382.415 234.363 380.74 233.95C379.911 233.755 379.048 233.755 378.22 233.95C377.394 234.159 376.666 234.646 376.16 235.33C375.197 236.814 374.725 238.563 374.81 240.33C374.812 242.15 374.99 243.965 375.34 245.75C376.061 249.421 377.081 253.026 378.39 256.53C378.77 257.426 379.062 258.357 379.26 259.31C379.307 259.58 379.299 259.857 379.236 260.124C379.172 260.39 379.054 260.641 378.89 260.86C378.801 260.964 378.704 261.061 378.6 261.15C378.486 261.252 378.354 261.33 378.21 261.38C377.905 261.426 377.594 261.354 377.34 261.18C376.509 260.647 375.735 260.031 375.03 259.34L372.89 257.34C371.488 255.983 369.965 254.758 368.34 253.68C367.53 253.148 366.643 252.743 365.71 252.48C365.267 252.343 364.799 252.301 364.339 252.358C363.879 252.415 363.436 252.569 363.04 252.81C362.267 253.371 361.73 254.197 361.53 255.13C361.289 256.085 361.168 257.066 361.17 258.05C361.179 260.073 361.431 262.087 361.92 264.05C362.908 268.04 364.368 271.897 366.27 275.54C368.163 279.276 370.325 282.869 372.74 286.29C373.948 288.026 375.25 289.695 376.64 291.29C377.98 292.95 379.34 294.6 380.7 296.29V296.35L380.46 296.25L386.82 295.33C388.927 295.079 391.02 294.719 393.09 294.25C397.17 293.332 401.18 292.126 405.09 290.64C408.947 289.214 412.622 287.338 416.04 285.05C417.718 283.939 419.252 282.626 420.61 281.14C421.279 280.412 421.853 279.602 422.32 278.73C422.797 277.905 422.953 276.933 422.76 276C422.631 275.553 422.408 275.139 422.106 274.786C421.804 274.432 421.431 274.147 421.01 273.95C420.14 273.525 419.214 273.229 418.26 273.07C416.331 272.778 414.379 272.661 412.43 272.72H409.51C408.506 272.759 407.5 272.696 406.51 272.53C406.202 272.491 405.922 272.333 405.73 272.09C405.656 271.954 405.612 271.804 405.6 271.65C405.584 271.514 405.584 271.376 405.6 271.24C405.63 270.969 405.714 270.707 405.846 270.468C405.978 270.23 406.156 270.02 406.37 269.85C407.157 269.28 407.997 268.788 408.88 268.38C412.208 266.669 415.388 264.686 418.39 262.45C419.842 261.367 421.182 260.141 422.39 258.79C423.638 257.541 424.463 255.933 424.75 254.19C424.833 253.342 424.621 252.49 424.15 251.78C423.671 251.075 423.034 250.493 422.29 250.08C420.782 249.251 419.151 248.667 417.46 248.35C415.788 248.013 414.098 247.77 412.4 247.62L409.88 247.38C409.43 247.354 408.991 247.235 408.59 247.03C408.366 246.915 408.183 246.735 408.063 246.514C407.944 246.292 407.894 246.04 407.92 245.79C408.011 245.357 408.193 244.948 408.454 244.59C408.714 244.231 409.046 243.932 409.43 243.71L411.43 242.23L415.28 239.3L422.72 233.65C425.11 231.78 427.66 230.2 429.46 227.96C430.381 226.913 431.014 225.645 431.3 224.28C431.416 223.624 431.392 222.951 431.23 222.305C431.068 221.659 430.771 221.054 430.36 220.53C429.923 220.048 429.357 219.701 428.73 219.53C428.102 219.344 427.454 219.236 426.8 219.21C425.511 219.176 424.222 219.223 422.94 219.35C422.3 219.35 421.66 219.44 421.03 219.45C420.373 219.499 419.717 219.357 419.14 219.04C418.864 218.853 418.632 218.609 418.459 218.325C418.286 218.04 418.177 217.721 418.14 217.39C418.066 216.769 418.103 216.139 418.25 215.53C421.112 210.108 423.698 204.544 426 198.86C428 193.86 429.73 189.56 430.35 185.86C430.653 184.245 430.72 182.595 430.55 180.96C430.42 179.772 430.02 178.629 429.38 177.62C428.992 177.003 428.465 176.485 427.84 176.11C427.627 175.98 427.402 175.87 427.17 175.78C427.412 175.845 427.644 175.943 427.86 176.07C428.503 176.438 429.051 176.952 429.46 177.57C430.112 178.588 430.526 179.74 430.67 180.94C430.864 182.589 430.814 184.257 430.52 185.89C429.92 189.6 428.22 193.89 426.23 198.89C423.977 204.639 421.433 210.269 418.61 215.76V215.76C418.471 216.323 418.437 216.906 418.51 217.48C418.537 217.763 418.624 218.037 418.765 218.284C418.907 218.53 419.099 218.744 419.33 218.91C419.851 219.186 420.441 219.308 421.03 219.26C421.65 219.26 422.28 219.2 422.92 219.15C424.219 219.019 425.524 218.969 426.83 219C427.507 219.027 428.179 219.138 428.83 219.33C429.517 219.513 430.14 219.884 430.63 220.4C431.065 220.961 431.38 221.606 431.552 222.295C431.724 222.983 431.75 223.701 431.63 224.4C431.339 225.833 430.677 227.164 429.71 228.26C427.86 230.56 425.29 232.16 422.92 234.04L415.49 239.7L411.65 242.62L409.7 244.11C409.37 244.33 409.071 244.593 408.81 244.89C408.569 245.176 408.41 245.521 408.35 245.89C408.332 246.056 408.366 246.224 408.446 246.371C408.527 246.517 408.65 246.636 408.8 246.71C409.153 246.881 409.537 246.98 409.93 247L412.45 247.24C414.162 247.386 415.865 247.63 417.55 247.97C419.299 248.293 420.987 248.89 422.55 249.74C423.347 250.199 424.03 250.831 424.55 251.59C425.071 252.386 425.31 253.333 425.23 254.28C424.932 256.124 424.069 257.829 422.76 259.16C421.517 260.534 420.144 261.783 418.66 262.89C415.639 265.148 412.438 267.155 409.09 268.89C408.239 269.276 407.428 269.745 406.67 270.29C406.504 270.418 406.365 270.577 406.262 270.759C406.159 270.941 406.093 271.142 406.07 271.35C406.06 271.45 406.06 271.55 406.07 271.65C406.07 271.73 406.07 271.92 406.14 271.91C406.268 272.025 406.428 272.098 406.6 272.12C407.538 272.272 408.489 272.332 409.44 272.3H412.36C414.34 272.228 416.322 272.345 418.28 272.65C419.289 272.807 420.267 273.121 421.18 273.58C421.662 273.811 422.09 274.141 422.435 274.55C422.779 274.959 423.033 275.436 423.18 275.95C423.406 277.001 423.235 278.098 422.7 279.03C422.216 279.94 421.618 280.783 420.92 281.54C419.536 283.059 417.971 284.403 416.26 285.54C412.812 287.859 409.099 289.756 405.2 291.19C401.259 292.693 397.215 293.91 393.1 294.83C391.023 295.301 388.924 295.661 386.81 295.91L380.44 296.84H380.29L380.2 296.72H380.15L376.09 291.72C374.701 290.122 373.395 288.453 372.18 286.72C369.746 283.273 367.567 279.654 365.66 275.89C363.749 272.207 362.282 268.309 361.29 264.28C360.784 262.29 360.525 260.244 360.52 258.19C360.521 257.158 360.648 256.131 360.9 255.13C361.135 254.082 361.747 253.157 362.62 252.53C363.075 252.249 363.585 252.067 364.116 251.998C364.648 251.929 365.187 251.974 365.7 252.13C366.678 252.407 367.609 252.832 368.46 253.39C370.112 254.483 371.659 255.729 373.08 257.11L375.22 259.11C375.9 259.771 376.644 260.364 377.44 260.88C377.582 260.983 377.754 261.039 377.93 261.04C377.93 261.04 378.08 260.95 378.15 260.9L378.37 260.68C378.491 260.511 378.576 260.32 378.621 260.117C378.666 259.914 378.669 259.704 378.63 259.5C378.44 258.584 378.158 257.69 377.79 256.83C376.475 253.3 375.451 249.668 374.73 245.97C374.374 244.155 374.197 242.31 374.2 240.46C374.12 238.591 374.631 236.743 375.66 235.18C376.23 234.421 377.041 233.878 377.96 233.64C378.857 233.43 379.792 233.43 380.69 233.64C382.408 234.047 384.051 234.722 385.56 235.64C387.041 236.52 388.47 237.485 389.84 238.53L391.84 240.05C392.138 240.291 392.476 240.478 392.84 240.6C393.001 240.647 393.173 240.644 393.332 240.59C393.491 240.537 393.63 240.435 393.73 240.3C393.927 240.002 394.041 239.657 394.06 239.3C394.07 238.903 394.026 238.506 393.93 238.12C393.78 237.31 393.64 236.51 393.49 235.71C393.19 234.11 392.9 232.52 392.61 230.96C392.04 227.82 391.47 224.76 390.92 221.77C390.37 218.78 389.6 215.88 389.77 212.93C389.799 211.468 390.205 210.039 390.95 208.78C391.335 208.171 391.845 207.651 392.447 207.255C393.049 206.858 393.728 206.594 394.44 206.48C395.148 206.422 395.858 206.564 396.49 206.89C397.103 207.188 397.678 207.561 398.2 208C399.189 208.855 400.124 209.77 401 210.74C401.426 211.207 401.866 211.657 402.32 212.09C402.726 212.521 403.246 212.83 403.82 212.98C404.102 213.012 404.389 212.983 404.66 212.895C404.93 212.807 405.179 212.662 405.39 212.47C405.828 212.092 406.193 211.638 406.47 211.13V211.13C408.072 205.152 409.981 199.261 412.19 193.48C414.09 188.43 415.73 184.08 417.82 180.94C418.713 179.538 419.812 178.277 421.08 177.2C422.012 176.427 423.111 175.88 424.29 175.6C425.013 175.429 425.766 175.429 426.49 175.6C426.782 175.635 427.066 175.72 427.33 175.85V175.85Z" fill="#263238"/>
<path d="M422.08 189.45C422.063 189.564 422.029 189.676 421.98 189.78L421.64 190.72C421.31 191.57 420.85 192.78 420.27 194.31C419.05 197.46 417.32 201.97 415.18 207.52L398.57 251.16C392.11 268.16 386.19 283.63 381.81 294.75C379.63 300.31 377.81 304.8 376.57 307.9C375.95 309.42 375.46 310.61 375.11 311.45C374.94 311.84 374.82 312.14 374.72 312.38L374.57 312.68C374.589 312.569 374.622 312.462 374.67 312.36C374.75 312.12 374.87 311.81 375.01 311.42C375.34 310.56 375.8 309.36 376.38 307.82C377.6 304.67 379.33 300.17 381.47 294.62L398.08 251C404.54 233.95 410.45 218.54 414.84 207.42C417.02 201.86 418.84 197.36 420.08 194.27C420.7 192.75 421.19 191.55 421.54 190.71C421.71 190.33 421.83 190.02 421.93 189.79L422.08 189.45Z" fill="#263238"/>
<path d="M422.621 224C421.831 224.566 420.994 225.064 420.121 225.49L414.001 228.89C411.601 230.22 409.421 231.41 407.811 232.22C406.964 232.7 406.069 233.089 405.141 233.38C405.937 232.824 406.773 232.326 407.641 231.89L413.741 228.44C416.141 227.11 418.331 225.95 419.951 225.16C420.802 224.689 421.696 224.301 422.621 224V224Z" fill="#263238"/>
<path d="M404.331 232.74C404.201 232.8 401.821 228.26 399.021 222.6C396.221 216.94 394.021 212.3 394.171 212.23C394.321 212.16 396.681 216.71 399.491 222.37C402.301 228.03 404.461 232.67 404.331 232.74Z" fill="#263238"/>
<path d="M395.59 259.37C394.79 258.78 394.053 258.11 393.39 257.37C392.09 256.07 390.39 254.22 388.54 252.08C386.69 249.94 385.19 247.92 384.13 246.42C383.506 245.646 382.967 244.808 382.52 243.92C383.206 244.634 383.841 245.396 384.42 246.2C385.56 247.64 387.13 249.61 388.94 251.74C390.75 253.87 392.43 255.74 393.65 257.11C394.352 257.814 395.001 258.569 395.59 259.37V259.37Z" fill="#263238"/>
<path d="M413.882 255.07C413.028 255.412 412.144 255.673 411.242 255.85C409.602 256.26 407.322 256.79 404.802 257.35C402.282 257.91 399.982 258.35 398.322 258.71C397.43 258.935 396.519 259.072 395.602 259.12C396.456 258.782 397.339 258.524 398.242 258.35C399.882 257.94 402.162 257.35 404.692 256.84C407.222 256.33 409.502 255.84 411.162 255.49C412.053 255.267 412.964 255.126 413.882 255.07V255.07Z" fill="#263238"/>
<path d="M409.15 279.57C408.04 279.955 406.903 280.259 405.75 280.48C403.63 280.97 400.75 281.62 397.47 282.3C394.19 282.98 391.28 283.58 389.15 283.98C388.009 284.253 386.849 284.437 385.68 284.53C386.789 284.143 387.925 283.838 389.08 283.62C391.19 283.13 394.08 282.48 397.36 281.8C400.64 281.12 403.54 280.52 405.67 280.12C406.814 279.847 407.977 279.664 409.15 279.57V279.57Z" fill="#263238"/>
<path d="M386.2 284.25C385.922 284.057 385.669 283.829 385.45 283.57C384.99 283.11 384.35 282.43 383.56 281.57C381.99 279.85 379.88 277.42 377.66 274.65C375.44 271.88 373.53 269.28 372.2 267.37C371.53 266.42 371.01 265.64 370.66 265.09C370.452 264.819 370.283 264.519 370.16 264.2C370.411 264.429 370.632 264.688 370.82 264.97L372.5 267.16C373.9 269.01 375.85 271.56 378.07 274.32C380.29 277.08 382.34 279.55 383.84 281.32C384.69 282.244 385.479 283.223 386.2 284.25V284.25Z" fill="#263238"/>
<path d="M376.2 351.24C358.84 337.24 356.32 313.31 358.5 292.1C358.87 288.56 358.73 284.79 360.63 281.79C362.53 278.79 366.63 276.94 369.7 278.65C372.25 280.07 373.18 283.22 374.48 285.85C376.22 289.366 378.917 292.319 382.26 294.37C384.44 295.7 387.19 296.61 389.5 295.53C392.68 294.05 393.33 289.85 393.55 286.32L394.78 266.58C395 263.04 395.24 259.44 396.57 256.17C397.9 252.9 400.57 249.95 403.96 249.23C407.35 248.51 411.4 250.75 411.87 254.23C411.903 255.7 411.836 257.17 411.67 258.63C411.67 260.1 412.24 261.77 413.6 262.27C414.96 262.77 416.46 261.88 417.6 260.92C421.49 257.61 424.27 253.19 426.9 248.78C429.53 244.37 432.08 239.85 435.66 236.19C439.24 232.53 444.01 229.76 449.09 229.82C454.17 229.88 459.33 233.37 460.27 238.42C461.21 243.47 457.96 248.34 454.52 252.15C449.413 257.815 443.511 262.709 437 266.68C435.729 267.254 434.677 268.222 434 269.44C433.07 271.74 435.14 274.23 437.41 275.17C439.98 276.22 442.86 276.17 445.59 276.66C448.32 277.15 451.22 278.59 452.08 281.26C453.28 284.97 450 288.54 446.86 290.82C440.602 295.369 433.611 298.812 426.19 301C423.52 301.77 420.73 302.41 418.51 304.09C416.29 305.77 414.81 308.86 415.91 311.43C417.01 314 420.2 315.03 422.91 314.71C425.62 314.39 428.2 313.08 430.86 312.28C435.86 310.78 442.08 311.55 444.86 315.95C446.71 318.85 446.63 322.7 445.37 325.95C443.965 329.106 441.942 331.949 439.42 334.31C431.1 343.019 420.616 349.362 409.04 352.69C397.52 355.82 387.04 356.16 376.12 351.3" fill="#5ABAB6"/>
<g opacity="0.1">
<path opacity="0.1" d="M376.2 351.24C358.84 337.24 356.32 313.31 358.5 292.1C358.87 288.56 358.73 284.79 360.63 281.79C362.53 278.79 366.63 276.94 369.7 278.65C372.25 280.07 373.18 283.22 374.48 285.85C376.22 289.366 378.917 292.319 382.26 294.37C384.44 295.7 387.19 296.61 389.5 295.53C392.68 294.05 393.33 289.85 393.55 286.32L394.78 266.58C395 263.04 395.24 259.44 396.57 256.17C397.9 252.9 400.57 249.95 403.96 249.23C407.35 248.51 411.4 250.75 411.87 254.23C411.903 255.7 411.836 257.17 411.67 258.63C411.67 260.1 412.24 261.77 413.6 262.27C414.96 262.77 416.46 261.88 417.6 260.92C421.49 257.61 424.27 253.19 426.9 248.78C429.53 244.37 432.08 239.85 435.66 236.19C439.24 232.53 444.01 229.76 449.09 229.82C454.17 229.88 459.33 233.37 460.27 238.42C461.21 243.47 457.96 248.34 454.52 252.15C449.413 257.815 443.511 262.709 437 266.68C435.729 267.254 434.677 268.222 434 269.44C433.07 271.74 435.14 274.23 437.41 275.17C439.98 276.22 442.86 276.17 445.59 276.66C448.32 277.15 451.22 278.59 452.08 281.26C453.28 284.97 450 288.54 446.86 290.82C440.602 295.369 433.611 298.812 426.19 301C423.52 301.77 420.73 302.41 418.51 304.09C416.29 305.77 414.81 308.86 415.91 311.43C417.01 314 420.2 315.03 422.91 314.71C425.62 314.39 428.2 313.08 430.86 312.28C435.86 310.78 442.08 311.55 444.86 315.95C446.71 318.85 446.63 322.7 445.37 325.95C443.965 329.106 441.942 331.949 439.42 334.31C431.1 343.019 420.616 349.362 409.04 352.69C397.52 355.82 387.04 356.16 376.12 351.3" fill="black"/>
</g>
<path d="M374.84 367C376.506 357.211 379.104 347.604 382.6 338.31C386.926 326.972 391.897 315.89 397.49 305.12L401.84 296.62C403.28 293.83 404.7 291.07 406.26 288.45C409.263 283.435 412.538 278.588 416.07 273.93C419.42 269.46 422.75 265.34 425.9 261.51C429.05 257.68 432.07 254.18 434.95 251.1C439.473 246.218 444.375 241.7 449.61 237.59C451.46 236.14 452.93 235.06 453.94 234.34L455.09 233.53C455.217 233.434 455.35 233.347 455.49 233.27C455.385 233.39 455.264 233.494 455.13 233.58L454.02 234.45C453.02 235.2 451.59 236.31 449.77 237.8C444.609 241.971 439.769 246.524 435.29 251.42C432.44 254.51 429.45 258.03 426.29 261.86C423.13 265.69 419.84 269.86 416.52 274.3C413.007 278.942 409.755 283.776 406.78 288.78C405.23 291.39 403.78 294.13 402.39 296.92L398.04 305.42C392.462 316.169 387.484 327.219 383.13 338.52C379.623 347.774 376.989 357.336 375.26 367.08" fill="#263238"/>
<path d="M406.451 288.42C406.31 287.921 406.226 287.408 406.201 286.89C406.091 285.89 405.96 284.47 405.83 282.69C405.58 279.15 405.391 274.23 405.201 268.82C405.011 263.41 404.75 258.5 404.44 254.96C404.29 253.2 404.16 251.77 404.05 250.78C403.961 250.269 403.93 249.748 403.96 249.23C404.123 249.721 404.237 250.227 404.3 250.74C404.48 251.74 404.69 253.15 404.9 254.92C405.33 258.45 405.66 263.36 405.9 268.79C406.14 274.22 406.23 278.97 406.34 282.67C406.41 284.34 406.461 285.74 406.511 286.87C406.54 287.387 406.52 287.906 406.451 288.42V288.42Z" fill="#263238"/>
<path d="M452.41 283.05C451.805 283.145 451.192 283.178 450.58 283.15C449.41 283.15 447.72 283.15 445.58 283.29C441.4 283.46 435.58 283.88 429.27 284.64C422.96 285.4 417.2 286.33 413.08 287.13C411.02 287.51 409.36 287.87 408.21 288.13C407.62 288.286 407.018 288.39 406.41 288.44C406.973 288.203 407.555 288.015 408.15 287.88C409.28 287.56 410.93 287.14 412.99 286.69C417.09 285.78 422.82 284.77 429.19 284C434.627 283.337 440.094 282.953 445.57 282.85C447.67 282.85 449.37 282.85 450.57 282.91C451.186 282.902 451.802 282.949 452.41 283.05Z" fill="#263238"/>
<path d="M383.222 337.49C383.103 337.315 383.012 337.123 382.952 336.92L382.282 335.22C381.712 333.75 380.942 331.59 380.032 328.92C378.202 323.57 375.902 316.1 373.472 307.83C371.042 299.56 368.822 292.07 367.102 286.69C366.262 284.07 365.562 281.92 365.052 280.32L364.502 278.59C364.424 278.391 364.373 278.183 364.352 277.97C364.465 278.148 364.556 278.34 364.622 278.54C364.802 279 365.022 279.54 365.282 280.24C365.852 281.71 366.622 283.87 367.542 286.54C369.372 291.89 371.672 299.36 374.092 307.64C376.512 315.92 378.752 323.39 380.472 328.77C381.312 331.39 382.002 333.54 382.472 335.14L383.022 336.87C383.117 337.067 383.184 337.275 383.222 337.49V337.49Z" fill="#263238"/>
<path d="M444.859 322.19C444.665 322.294 444.456 322.365 444.239 322.4L442.449 322.87L435.849 324.52C430.269 325.91 422.599 327.92 414.119 330.16C405.639 332.4 397.939 334.34 392.329 335.62C389.529 336.26 387.259 336.76 385.679 337.07L383.859 337.42C383.65 337.473 383.434 337.496 383.219 337.49C383.413 337.398 383.618 337.331 383.829 337.29L385.629 336.82L392.229 335.17C397.799 333.78 405.479 331.76 413.959 329.52C422.439 327.28 430.139 325.34 435.739 324.06C438.539 323.42 440.819 322.93 442.389 322.62L444.209 322.27C444.422 322.219 444.64 322.192 444.859 322.19V322.19Z" fill="#263238"/>
<path d="M380.24 75.1899H137.73V407.49H380.24V75.1899Z" fill="#455A64"/>
<path d="M370.65 387.73H325.74H157.93V88.6196H370.65V350.52V387.73Z" fill="#C7C7C7"/>
<path d="M367.29 382.18H322.78H156.48V84.6699H367.29V345.17V382.18Z" fill="#7E7E7E"/>
<path d="M344.641 359.03L320.361 378.8H152.551V85.4199H365.271V342.3L344.641 359.03Z" fill="#C7C7C7"/>
<path d="M344.639 359C344.639 359 345.069 358.63 345.939 357.92L349.829 354.74L365.219 342.21V342.27C365.219 300.07 365.139 206.27 365.069 85.3899L365.299 85.6299H154.429H152.579L152.839 85.3699C152.839 195.67 152.839 297.42 152.779 378.75L152.579 378.54L320.389 378.66H320.329L338.569 363.87L343.139 360.18C344.139 359.36 344.669 358.96 344.669 358.96L343.169 360.21L338.599 364L320.419 378.86L152.549 379H152.339V378.79C152.339 297.46 152.339 195.71 152.289 85.4099V85.1499H154.399H365.269H365.509V85.3799C365.439 206.3 365.379 300.06 365.359 342.26L349.909 354.73L345.999 358L344.639 359Z" fill="#263238"/>
<path d="M230.209 64.9199H288.359C292.112 64.9199 295.711 66.4107 298.365 69.0644C301.018 71.718 302.509 75.3171 302.509 79.0699V94.7599H215.449V79.6699C215.452 75.7571 217.008 72.0054 219.776 69.2395C222.544 66.4736 226.296 64.9199 230.209 64.9199V64.9199Z" fill="#5ABAB6"/>
<path d="M236.782 64.9198L233.602 48.8198H283.732L280.942 64.9198H236.782Z" fill="#5ABAB6"/>
<path d="M210.631 168H174.801V132.16H210.631V168ZM175.801 167H209.631V133.16H175.801V167Z" fill="#5ABAB6"/>
<path d="M337.282 140.82C337.282 140.96 312.332 141.08 281.572 141.08C250.812 141.08 225.852 140.96 225.852 140.82C225.852 140.68 250.792 140.56 281.572 140.56C312.352 140.56 337.282 140.67 337.282 140.82Z" fill="#263238"/>
<path d="M337.282 148.26C337.282 148.41 312.332 148.52 281.572 148.52C250.812 148.52 225.852 148.41 225.852 148.26C225.852 148.11 250.792 148 281.572 148C312.352 148 337.282 148.12 337.282 148.26Z" fill="#263238"/>
<path d="M337.282 155.71C337.282 155.85 312.332 155.97 281.572 155.97C250.812 155.97 225.852 155.85 225.852 155.71C225.852 155.57 250.792 155.45 281.572 155.45C312.352 155.45 337.282 155.57 337.282 155.71Z" fill="#263238"/>
<path d="M337.282 163.16C337.282 163.3 312.332 163.42 281.572 163.42C250.812 163.42 225.852 163.3 225.852 163.16C225.852 163.02 250.792 162.9 281.572 162.9C312.352 162.9 337.282 163 337.282 163.16Z" fill="#263238"/>
<path d="M210.631 223.23H174.801V187.39H210.631V223.23ZM175.801 222.23H209.631V188.39H175.801V222.23Z" fill="#5ABAB6"/>
<path d="M181.922 206.05L186.682 200.94L194.612 207.28L212.762 189.66L217.112 194.79L194.262 217.33L181.922 206.05Z" fill="#5ABAB6"/>
<path d="M337.282 196.05C337.282 196.19 312.332 196.31 281.572 196.31C250.812 196.31 225.852 196.19 225.852 196.05C225.852 195.91 250.792 195.79 281.572 195.79C312.352 195.79 337.282 195.91 337.282 196.05Z" fill="#263238"/>
<path d="M337.282 203.5C337.282 203.64 312.332 203.76 281.572 203.76C250.812 203.76 225.852 203.64 225.852 203.5C225.852 203.36 250.792 203.24 281.572 203.24C312.352 203.24 337.282 203.35 337.282 203.5Z" fill="#263238"/>
<path d="M337.282 210.94C337.282 211.09 312.332 211.2 281.572 211.2C250.812 211.2 225.852 211.09 225.852 210.94C225.852 210.79 250.792 210.68 281.572 210.68C312.352 210.68 337.282 210.8 337.282 210.94Z" fill="#263238"/>
<path d="M337.282 218.39C337.282 218.53 312.332 218.65 281.572 218.65C250.812 218.65 225.852 218.53 225.852 218.39C225.852 218.25 250.792 218.13 281.572 218.13C312.352 218.13 337.282 218.25 337.282 218.39Z" fill="#263238"/>
<path d="M210.631 276.68H174.801V240.84H210.631V276.68ZM175.801 275.68H209.631V241.84H175.801V275.68Z" fill="#5ABAB6"/>
<path d="M181.922 259.5L186.682 254.39L194.612 260.73L212.762 243.11L217.112 248.24L194.262 270.78L181.922 259.5Z" fill="#5ABAB6"/>
<path d="M337.282 249.5C337.282 249.64 312.332 249.76 281.572 249.76C250.812 249.76 225.852 249.64 225.852 249.5C225.852 249.36 250.792 249.24 281.572 249.24C312.352 249.24 337.282 249.35 337.282 249.5Z" fill="#263238"/>
<path d="M337.282 256.94C337.282 257.09 312.332 257.2 281.572 257.2C250.812 257.2 225.852 257.09 225.852 256.94C225.852 256.79 250.792 256.68 281.572 256.68C312.352 256.68 337.282 256.8 337.282 256.94Z" fill="#263238"/>
<path d="M337.282 264.39C337.282 264.54 312.332 264.65 281.572 264.65C250.812 264.65 225.852 264.54 225.852 264.39C225.852 264.24 250.792 264.13 281.572 264.13C312.352 264.13 337.282 264.25 337.282 264.39Z" fill="#263238"/>
<path d="M337.282 271.84C337.282 271.98 312.332 272.1 281.572 272.1C250.812 272.1 225.852 271.98 225.852 271.84C225.852 271.7 250.792 271.58 281.572 271.58C312.352 271.58 337.282 271.7 337.282 271.84Z" fill="#263238"/>
<path d="M210.631 328.29H174.801V292.45H210.631V328.29ZM175.801 327.29H209.631V293.45H175.801V327.29Z" fill="#5ABAB6"/>
<path d="M181.922 311.11L186.682 306L194.612 312.34L212.762 294.72L217.112 299.84L194.262 322.38L181.922 311.11Z" fill="#5ABAB6"/>
<path d="M337.282 301.1C337.282 301.25 312.332 301.36 281.572 301.36C250.812 301.36 225.852 301.25 225.852 301.1C225.852 300.95 250.792 300.84 281.572 300.84C312.352 300.84 337.282 301 337.282 301.1Z" fill="#263238"/>
<path d="M337.282 308.55C337.282 308.69 312.332 308.81 281.572 308.81C250.812 308.81 225.852 308.69 225.852 308.55C225.852 308.41 250.792 308.29 281.572 308.29C312.352 308.29 337.282 308.41 337.282 308.55Z" fill="#263238"/>
<path d="M337.282 316C337.282 316.14 312.332 316.26 281.572 316.26C250.812 316.26 225.852 316.14 225.852 316C225.852 315.86 250.792 315.74 281.572 315.74C312.352 315.74 337.282 315.85 337.282 316Z" fill="#263238"/>
<path d="M337.282 323.44C337.282 323.59 312.332 323.7 281.572 323.7C250.812 323.7 225.852 323.59 225.852 323.44C225.852 323.29 250.792 323.18 281.572 323.18C312.352 323.18 337.282 323.3 337.282 323.44Z" fill="#263238"/>
<path d="M327.031 330.23L303.711 378.53H320.361L327.031 330.23Z" fill="#C7C7C7"/>
<path d="M320.359 378.8L327.029 330.5L365.269 342.3L320.359 378.8Z" fill="#C7C7C7"/>
<path d="M320.359 378.8L333.219 368.21L365.109 342.1L365.199 342.54L350.429 338L326.999 330.73L327.309 330.53C325.309 344.53 323.599 356.58 322.389 365.12C321.179 373.43 320.559 377.72 320.389 378.8C320.386 378.726 320.386 378.653 320.389 378.58L320.479 377.92C320.559 377.29 320.669 376.41 320.819 375.29C321.129 372.94 321.569 369.57 322.129 365.29C323.289 356.68 324.909 344.57 326.799 330.42V330.14L327.069 330.22L350.559 337.46L365.319 342.02L365.779 342.16L365.409 342.46C352.499 352.87 341.209 361.97 333.129 368.46L323.699 376.03L321.179 378.03L320.539 378.54L320.359 378.8Z" fill="#263238"/>
<g opacity="0.3">
<path opacity="0.3" d="M280.26 48.8198L277.5 64.9198H280.94L283.73 48.8198H279.34" fill="black"/>
</g>
<path d="M133.431 218.62C134.636 218.711 135.848 218.558 136.993 218.171C138.138 217.783 139.194 217.168 140.096 216.364C140.999 215.559 141.73 214.581 142.246 213.488C142.762 212.394 143.053 211.208 143.101 210C143.291 205.1 143.461 200.15 143.461 200.15C143.461 200.15 150.881 199.46 151.461 192.15C152.041 184.84 151.751 167.86 151.751 167.86C147.683 165.808 143.141 164.88 138.595 165.172C134.048 165.464 129.662 166.965 125.891 169.52L126.341 195.36V209.27C126.351 213.89 128.781 218.27 133.431 218.62Z" fill="#FFBE9D"/>
<path d="M144.1 183.15C143.558 182.371 142.743 181.825 141.816 181.621C140.889 181.417 139.919 181.57 139.1 182.05C138.269 182.627 137.67 183.481 137.41 184.459C137.15 185.437 137.246 186.476 137.68 187.39C138.059 188.068 138.575 188.66 139.194 189.129C139.814 189.597 140.524 189.931 141.28 190.11C141.951 190.256 142.545 190.641 142.951 191.193C143.358 191.745 143.55 192.427 143.49 193.11C143.183 195.04 142.281 196.826 140.91 198.22C138.645 200.525 135.63 201.944 132.41 202.22C129.28 202.59 125.7 201.94 123.88 199.37C122.55 197.5 122.46 195.05 122.41 192.76C122.297 187.347 122.184 181.933 122.07 176.52C121.953 174.569 122.077 172.611 122.44 170.69C122.823 168.753 123.923 167.031 125.52 165.87C127.31 164.69 129.57 164.59 131.6 163.94C134.15 163.11 136.31 161.43 138.69 160.21C141.07 158.99 143.98 158.26 146.37 159.46C148.09 160.32 149.24 162.03 150.9 162.98C153.28 164.33 156.51 163.98 157.66 167.52C158.065 168.73 158.065 170.04 157.66 171.25C156.05 176 150.17 177.92 145.93 175.87C145.85 176.67 146.64 178.46 145.79 181C145.52 181.82 145.43 183.05 144.16 183.08" fill="#263238"/>
<path d="M123.829 168C124.994 165.677 125.79 163.188 126.189 160.62C126.377 159.334 126.267 158.022 125.866 156.785C125.466 155.549 124.786 154.421 123.879 153.49C122.54 152.328 120.811 151.716 119.039 151.78C117.356 151.876 115.744 152.489 114.423 153.536C113.102 154.583 112.136 156.013 111.659 157.63C111.247 159.26 111.311 160.974 111.842 162.569C112.374 164.164 113.351 165.573 114.659 166.63C115.996 167.657 117.58 168.312 119.252 168.53C120.924 168.748 122.623 168.52 124.179 167.87" fill="#263238"/>
<path d="M125.269 165.35C125.215 166.248 124.829 167.093 124.185 167.722C123.542 168.35 122.688 168.717 121.789 168.75C121.789 168.6 122.869 168.31 123.789 167.35C124.709 166.39 125.129 165.31 125.269 165.35Z" fill="#5ABAB6"/>
<path d="M122.862 167.15C122.289 167.751 121.611 168.242 120.862 168.6C120.061 169.057 119.163 169.314 118.242 169.35C117.657 169.382 117.073 169.273 116.539 169.033C116.005 168.793 115.536 168.428 115.172 167.97C114.849 167.488 114.634 166.942 114.541 166.369C114.448 165.796 114.479 165.21 114.632 164.65C114.864 163.762 115.283 162.933 115.862 162.22C116.341 161.544 116.929 160.953 117.602 160.47C117.157 161.161 116.676 161.829 116.162 162.47C115.66 163.167 115.3 163.955 115.102 164.79C114.977 165.283 114.956 165.796 115.041 166.297C115.125 166.798 115.313 167.276 115.592 167.7C115.911 168.091 116.317 168.402 116.776 168.61C117.236 168.818 117.738 168.917 118.242 168.9C119.096 168.886 119.937 168.681 120.702 168.3C122.002 167.63 122.812 167.07 122.862 167.15Z" fill="#263238"/>
<path d="M110.38 175.44C110.531 175.694 110.649 175.966 110.73 176.25C110.989 176.999 111.357 177.707 111.82 178.35C112.129 178.815 112.56 179.185 113.067 179.418C113.574 179.651 114.136 179.739 114.69 179.67C115.353 179.483 115.956 179.127 116.442 178.639C116.927 178.15 117.278 177.544 117.46 176.88C117.819 175.481 118.07 174.057 118.21 172.62C118.351 171.387 118.837 170.22 119.61 169.25C120.164 168.612 120.919 168.182 121.75 168.03C122.051 167.956 122.367 167.984 122.65 168.11C122.65 168.11 122.32 168.11 121.79 168.23C121.039 168.437 120.374 168.879 119.89 169.49C119.209 170.43 118.791 171.534 118.68 172.69C118.565 174.162 118.321 175.621 117.95 177.05C117.744 177.8 117.342 178.482 116.784 179.025C116.227 179.568 115.535 179.953 114.78 180.14C114.09 180.25 113.382 180.116 112.78 179.76C112.281 179.457 111.851 179.051 111.52 178.57C111.062 177.882 110.724 177.121 110.52 176.32C110.418 176.038 110.37 175.739 110.38 175.44V175.44Z" fill="#263238"/>
<path d="M106.772 237.13C106.772 237.13 103.022 264.55 106.772 268.03C110.522 271.51 114.112 270.35 114.112 270.35L121.242 264.35L122.642 237.09L106.772 237.13Z" fill="#FFBE9D"/>
<path d="M184.219 160.16L188.979 155.05L196.909 161.39L215.059 143.77L219.409 148.9L196.559 171.44L184.219 160.16Z" fill="#5ABAB6"/>
<path d="M206.58 161.55L199.68 165.98C199.37 163.25 197.29 160.55 197.39 161.92C197.49 163.29 197.39 170.4 197.39 170.4L185.1 196.29C183.43 200.39 180.04 202.97 177.51 203.58L166 207L170.49 222.19L186.49 216.89C188.532 216.213 190.387 215.067 191.907 213.544C193.426 212.021 194.568 210.164 195.24 208.12L206.24 174.6C206.97 172.441 207.558 170.236 208 168C208.48 165.19 206.58 161.55 206.58 161.55Z" fill="#FFBE9D"/>
<path d="M150.052 444.72L149.872 437.05L135.492 437.28L135.622 448.51L136.522 448.56C140.522 448.71 156.732 449.07 159.372 448.23C162.312 447.28 150.052 444.72 150.052 444.72Z" fill="#5ABAB6"/>
<g opacity="0.5">
<path opacity="0.5" d="M140.84 448.32C140.598 447.123 139.926 446.056 138.95 445.32C137.99 444.573 136.783 444.216 135.57 444.32L135.63 448.32H140.84Z" fill="#C7C7C7"/>
</g>
<g opacity="0.4">
<path opacity="0.4" d="M156.002 446.19C156.002 446.19 160.302 447.35 159.782 448.07C159.262 448.79 142.842 449.07 135.582 448.51V448.19L154.742 448.06C154.742 448.06 155.212 446.24 156.002 446.19Z" fill="#C7C7C7"/>
</g>
<path d="M135.409 448.18H135.659H136.369L138.989 448.25C141.199 448.3 144.249 448.32 147.619 448.25C150.989 448.18 154.049 448.09 156.249 447.98L158.869 447.83L159.579 447.78H159.819H159.569H158.859L156.249 447.88C154.039 447.95 150.989 448.05 147.619 448.1C144.249 448.15 141.199 448.1 138.989 448.1H136.379H135.379L135.409 448.18Z" fill="#263238"/>
<path d="M154.802 448.28C154.906 447.846 155.064 447.426 155.272 447.03C155.524 446.666 155.815 446.33 156.142 446.03C155.716 446.23 155.361 446.554 155.122 446.959C154.883 447.364 154.771 447.831 154.802 448.3V448.28Z" fill="#263238"/>
<path d="M150.522 446.19C150.522 446.19 150.762 445.97 150.972 445.64C151.182 445.31 151.302 445.01 151.262 444.99C151.222 444.97 151.022 445.21 150.822 445.54C150.622 445.87 150.482 446.17 150.522 446.19Z" fill="#263238"/>
<path d="M149.349 445.6C149.349 445.6 149.599 445.48 149.849 445.25C150.099 445.02 150.259 444.81 150.229 444.78C150.199 444.75 149.969 444.9 149.729 445.12C149.489 445.34 149.309 445.56 149.349 445.6Z" fill="#263238"/>
<path d="M148.59 444.25C148.83 444.337 149.087 444.365 149.34 444.33C149.593 444.36 149.85 444.329 150.09 444.24C149.848 444.163 149.593 444.136 149.34 444.16C149.086 444.132 148.83 444.163 148.59 444.25Z" fill="#263238"/>
<path d="M148.32 443.3C148.573 443.455 148.864 443.534 149.16 443.53C149.457 443.573 149.759 443.527 150.03 443.4C149.744 443.372 149.456 443.372 149.17 443.4C148.891 443.34 148.606 443.307 148.32 443.3V443.3Z" fill="#263238"/>
<path d="M151 444.93C151.304 444.986 151.616 444.986 151.92 444.93C152.26 444.885 152.595 444.808 152.92 444.7C153.114 444.639 153.302 444.559 153.48 444.46C153.536 444.43 153.586 444.389 153.625 444.339C153.665 444.289 153.694 444.232 153.71 444.17C153.722 444.1 153.714 444.029 153.688 443.964C153.661 443.898 153.617 443.842 153.56 443.8C153.204 443.635 152.802 443.598 152.421 443.694C152.04 443.791 151.705 444.015 151.47 444.33C151.335 444.517 151.237 444.727 151.18 444.95C151.162 445.032 151.162 445.118 151.18 445.2C151.276 444.917 151.414 444.651 151.59 444.41C151.796 444.165 152.066 443.981 152.37 443.88C152.734 443.754 153.132 443.775 153.48 443.94C153.62 444.05 153.57 444.22 153.41 444.32C153.244 444.413 153.07 444.49 152.89 444.55C152.564 444.663 152.23 444.75 151.89 444.81C151.34 444.9 151 444.9 151 444.93Z" fill="#263238"/>
<path d="M151.232 445C151.345 444.807 151.381 444.578 151.332 444.36C151.295 444.119 151.202 443.89 151.062 443.69C150.983 443.555 150.871 443.441 150.736 443.361C150.602 443.281 150.449 443.236 150.292 443.23C150.245 443.239 150.201 443.258 150.162 443.285C150.122 443.312 150.088 443.346 150.062 443.386C150.036 443.426 150.018 443.471 150.01 443.518C150.001 443.565 150.002 443.613 150.012 443.66C150.035 443.807 150.089 443.947 150.172 444.07C150.294 444.275 150.445 444.46 150.622 444.62C150.765 444.786 150.947 444.913 151.152 444.99C151.152 444.99 150.972 444.83 150.712 444.54C150.563 444.369 150.429 444.185 150.312 443.99C150.182 443.8 150.092 443.45 150.312 443.4C150.532 443.35 150.782 443.6 150.922 443.78C151.056 443.958 151.152 444.163 151.202 444.38C151.23 444.585 151.24 444.793 151.232 445Z" fill="#263238"/>
<path d="M135.652 444.24C135.652 444.24 136.062 444.24 136.712 444.24C137.56 444.32 138.368 444.639 139.042 445.159C139.717 445.68 140.23 446.38 140.522 447.18C140.752 447.79 140.782 448.18 140.812 448.18C140.832 448.084 140.832 447.986 140.812 447.89C140.78 447.629 140.723 447.371 140.642 447.12C140.365 446.285 139.843 445.552 139.144 445.017C138.445 444.482 137.601 444.169 136.722 444.12C136.46 444.091 136.195 444.091 135.932 444.12C135.832 444.141 135.737 444.182 135.652 444.24Z" fill="#263238"/>
<path d="M137.049 438.24C136.959 439.221 136.933 440.206 136.969 441.19C136.937 442.191 136.967 443.193 137.059 444.19C137.15 443.193 137.176 442.191 137.139 441.19C137.163 440.206 137.133 439.221 137.049 438.24V438.24Z" fill="#263238"/>
<path d="M142.621 446.89C143.315 447.033 144.023 447.09 144.731 447.06C145.437 447.09 146.144 447.023 146.831 446.86C146.831 446.81 145.831 446.86 144.731 446.86C143.631 446.86 142.631 446.84 142.621 446.89Z" fill="#263238"/>
<path d="M139.812 446.92C139.812 446.92 139.892 447.12 139.982 447.34C140.072 447.56 140.143 447.74 140.193 447.74C140.243 447.74 140.263 447.51 140.143 447.26C140.023 447.01 139.842 446.89 139.812 446.92Z" fill="#263238"/>
<path d="M138.719 445.62C138.719 445.62 138.779 445.8 138.939 445.95C139.099 446.1 139.239 446.19 139.269 446.16C139.299 446.13 139.209 445.97 139.059 445.83C138.909 445.69 138.759 445.58 138.719 445.62Z" fill="#263238"/>
<path d="M137.192 445C137.192 445 137.402 445 137.612 445.11C137.822 445.22 137.972 445.29 138.012 445.26C138.052 445.23 137.932 445.03 137.662 444.95C137.392 444.87 137.182 445 137.192 445Z" fill="#263238"/>
<path d="M136.109 444.77C136.109 444.77 136.169 444.89 136.289 444.93C136.409 444.97 136.519 444.98 136.539 444.93C136.559 444.88 136.469 444.81 136.349 444.77C136.229 444.73 136.119 444.72 136.109 444.77Z" fill="#263238"/>
<path d="M99.2906 442.27L104.171 436.34L93.1106 427.13L85.8906 435.73L86.5306 436.35C89.4406 439.06 101.531 449.92 104.071 451C106.921 452.21 99.2906 442.27 99.2906 442.27Z" fill="#5ABAB6"/>
<g opacity="0.5">
<path opacity="0.5" d="M90 439C90.6118 437.931 90.8076 436.674 90.55 435.47C90.3048 434.28 89.619 433.226 88.63 432.52L86 435.59L90 439Z" fill="#C7C7C7"/>
</g>
<g opacity="0.4">
<path opacity="0.4" d="M102.881 447.29C102.881 447.29 105.381 450.98 104.521 451.18C103.661 451.38 91.0006 440.86 85.8906 435.73L86.1106 435.5L100.721 447.9C100.721 447.9 102.211 446.78 102.881 447.29Z" fill="#C7C7C7"/>
</g>
<path d="M85.9414 435.35L86.1114 435.53L86.6314 436.02L88.5714 437.78C90.2114 439.25 92.5114 441.26 95.1014 443.42C97.6914 445.58 100.101 447.49 101.821 448.85L103.901 450.44L104.471 450.86L104.681 451L104.491 450.83L103.941 450.38L101.941 448.75C100.211 447.37 97.8414 445.45 95.2514 443.29C92.6614 441.13 90.3514 439.14 88.6914 437.69L86.6914 435.97L86.1514 435.5L85.9414 435.35Z" fill="#263238"/>
<path d="M100.57 448.07C100.935 447.805 101.331 447.586 101.75 447.42C102.183 447.31 102.625 447.243 103.07 447.22C102.625 447.056 102.136 447.056 101.69 447.22C101.226 447.358 100.828 447.66 100.57 448.07Z" fill="#263238"/>
<path d="M98.6914 443.69C98.6914 443.74 99.0214 443.69 99.3914 443.56C99.7614 443.43 100.061 443.31 100.041 443.26C100.021 443.21 99.7114 443.26 99.3414 443.39C99.1057 443.442 98.884 443.545 98.6914 443.69V443.69Z" fill="#263238"/>
<path d="M98.1914 442.47C98.1914 442.47 98.4614 442.55 98.8014 442.54C99.1414 442.53 99.4014 442.48 99.4014 442.43C99.4014 442.38 99.1214 442.35 98.7914 442.36C98.5856 442.35 98.3803 442.388 98.1914 442.47V442.47Z" fill="#263238"/>
<path d="M98.4922 441C98.4922 441 98.6922 441.28 99.0122 441.55C99.1927 441.732 99.4065 441.878 99.6422 441.98C99.6422 441.98 99.4422 441.69 99.1222 441.42C98.8022 441.15 98.5322 440.92 98.4922 441Z" fill="#263238"/>
<path d="M98.9102 440.06C99.019 440.334 99.185 440.582 99.3971 440.788C99.6092 440.993 99.8625 441.15 100.14 441.25C99.9465 441.04 99.7394 440.843 99.5201 440.66C99.1901 440.34 99.0002 440 98.9102 440.06Z" fill="#263238"/>
<path d="M99.8725 443C100.071 443.239 100.312 443.439 100.583 443.59C100.866 443.773 101.168 443.927 101.483 444.05C101.668 444.134 101.863 444.198 102.062 444.24C102.188 444.261 102.317 444.232 102.423 444.16C102.478 444.117 102.519 444.06 102.542 443.994C102.565 443.928 102.569 443.857 102.553 443.79C102.398 443.424 102.121 443.124 101.768 442.941C101.416 442.758 101.01 442.705 100.623 442.79C100.394 442.835 100.179 442.93 99.9925 443.07C99.9225 443.115 99.8614 443.172 99.8125 443.24C100.069 443.084 100.349 442.972 100.643 442.91C100.96 442.855 101.286 442.893 101.583 443.02C101.939 443.158 102.226 443.431 102.382 443.78C102.382 443.96 102.273 444.06 102.083 444.03C101.898 443.988 101.717 443.931 101.543 443.86C101.234 443.746 100.937 443.605 100.653 443.44C100.163 443.25 99.8925 443 99.8725 443Z" fill="#263238"/>
<path d="M100.001 443.23C100.001 443.23 100.261 443.15 100.501 442.81C100.63 442.604 100.712 442.371 100.741 442.13C100.764 441.974 100.75 441.815 100.699 441.665C100.649 441.516 100.564 441.38 100.451 441.27C100.365 441.224 100.264 441.214 100.17 441.242C100.076 441.27 99.9975 441.334 99.9509 441.42C99.8749 441.545 99.8271 441.685 99.8109 441.83C99.7818 442.066 99.7818 442.304 99.8109 442.54C99.8109 442.76 99.8659 442.977 99.971 443.17C99.971 443.17 99.971 442.92 99.971 442.54C99.9682 442.312 99.9883 442.084 100.031 441.86C100.031 441.63 100.211 441.31 100.421 441.42C100.631 441.53 100.641 441.88 100.641 442.11C100.623 442.331 100.558 442.546 100.451 442.74C100.32 442.919 100.169 443.084 100.001 443.23V443.23Z" fill="#263238"/>
<path d="M88.6914 432.52C88.6914 432.52 89.0314 432.75 89.4814 433.22C90.0671 433.839 90.4717 434.607 90.6514 435.44C90.8171 436.276 90.7478 437.141 90.4514 437.94C90.2214 438.56 89.9714 438.89 90.0014 438.94C90.0766 438.874 90.1407 438.796 90.1914 438.71C90.3404 438.495 90.4646 438.263 90.5614 438.02C90.9071 437.206 90.9978 436.307 90.8214 435.44C90.6409 434.575 90.2055 433.785 89.5714 433.17C89.3824 432.985 89.1746 432.821 88.9514 432.68C88.8758 432.61 88.7875 432.556 88.6914 432.52Z" fill="#263238"/>
<path d="M93.6725 428.87C92.9621 429.559 92.2943 430.29 91.6725 431.06C91.0124 431.793 90.3915 432.561 89.8125 433.36C90.5273 432.679 91.1955 431.951 91.8125 431.18C92.4715 430.442 93.0923 429.671 93.6725 428.87Z" fill="#263238"/>
<path d="M92.25 439.07C92.6774 439.631 93.1747 440.135 93.73 440.57C94.2492 441.052 94.8311 441.463 95.46 441.79C95.46 441.79 94.73 441.19 93.85 440.44C92.97 439.69 92.29 439 92.25 439.07Z" fill="#263238"/>
<path d="M90.0898 437.26C90.0898 437.26 90.0198 437.46 89.9598 437.69C89.8998 437.92 89.8098 438.09 89.8498 438.12C89.8898 438.15 90.0498 438 90.1298 437.73C90.2098 437.46 90.1398 437.25 90.0898 437.26Z" fill="#263238"/>
<path d="M90.1202 435.56C90.0702 435.56 90.0502 435.74 90.0702 435.95C90.0902 436.16 90.1402 436.33 90.1902 436.33C90.2402 436.33 90.2602 436.15 90.1902 435.94C90.1202 435.73 90.1702 435.56 90.1202 435.56Z" fill="#263238"/>
<path d="M89.3398 434.12C89.3398 434.17 89.4698 434.29 89.5798 434.48C89.6898 434.67 89.7398 434.86 89.7898 434.86C89.8398 434.86 89.8699 434.63 89.7299 434.39C89.5899 434.15 89.3598 434.08 89.3398 434.12Z" fill="#263238"/>
<path d="M88.6914 433.21C88.6914 433.21 88.6914 433.35 88.6914 433.46C88.6914 433.57 88.8414 433.64 88.8814 433.62C88.9214 433.6 88.8814 433.48 88.8814 433.37C88.8814 433.26 88.7314 433.19 88.6914 433.21Z" fill="#263238"/>
<path d="M129.222 281.59C129.222 281.59 124.432 301.85 125.792 305.86C127.152 309.87 135.922 312.18 135.922 312.18L135.622 367.67L87.1016 427.67L105.002 442.31C105.002 442.31 157.542 382.22 162.172 371.31C166.802 360.4 159.172 280.66 159.172 280.66L129.222 281.59Z" fill="#263238"/>
<path d="M154.003 273.33L156.373 441.85L131.703 442L119.313 304.72C116.693 302.22 113.003 297.94 113.513 288.39L114.113 277.3L154.003 273.33Z" fill="#263238"/>
<path d="M128 377.05C128.036 376.961 128.083 376.877 128.14 376.8C128.27 376.62 128.42 376.39 128.61 376.11L130.44 373.52L137.14 364.24V364.37C136.6 358.52 135.95 351.43 135.25 343.78C134.35 333.78 133.63 324.68 133.2 318.09C132.98 314.8 132.84 312.14 132.76 310.3C132.76 309.42 132.7 308.71 132.69 308.17C132.659 307.924 132.659 307.676 132.69 307.43C132.738 307.674 132.768 307.922 132.78 308.17C132.78 308.7 132.88 309.41 132.95 310.29C133.1 312.18 133.3 314.82 133.56 318.07C134.08 324.64 134.86 333.71 135.76 343.73C136.43 351.41 137.11 358.49 137.56 364.37V364.44V364.5L130.71 373.66L128.78 376.19L128.26 376.84C128.05 377 128 377.06 128 377.05Z" fill="#455A64"/>
<path d="M135.561 307.43C133.353 307.313 131.162 306.978 129.021 306.43C126.842 306.061 124.705 305.479 122.641 304.69C124.827 304.97 126.994 305.381 129.131 305.92C131.301 306.3 133.448 306.804 135.561 307.43Z" fill="#455A64"/>
<path d="M152.461 365C150.332 364.117 148.091 363.531 145.801 363.26C143.495 363.167 141.186 363.393 138.941 363.93C139.528 363.56 140.179 363.305 140.861 363.18C142.492 362.755 144.182 362.606 145.861 362.74C147.53 362.874 149.166 363.283 150.701 363.95C151.346 364.192 151.942 364.548 152.461 365V365Z" fill="#455A64"/>
<path d="M161.17 372.78C161.28 372.87 154.34 382.19 145.66 393.59C136.98 404.99 129.85 414.18 129.74 414.1C129.63 414.02 136.57 404.69 145.25 393.28C153.93 381.87 161.06 372.69 161.17 372.78Z" fill="#455A64"/>
<path d="M157.829 285.84C157.544 286.57 157.063 287.207 156.439 287.68C155.724 288.306 154.888 288.777 153.982 289.064C153.077 289.352 152.122 289.448 151.177 289.349C150.232 289.249 149.319 288.956 148.493 288.486C147.667 288.016 146.947 287.381 146.379 286.62C145.85 286.035 145.502 285.309 145.379 284.53C145.764 285.17 146.184 285.787 146.639 286.38C147.782 287.765 149.423 288.646 151.209 288.833C152.996 289.02 154.784 288.498 156.189 287.38C156.762 286.895 157.309 286.381 157.829 285.84V285.84Z" fill="#455A64"/>
<path d="M124.099 199.13C120.034 195.267 117.637 189.971 117.419 184.368C117.2 178.764 119.177 173.297 122.929 169.13" fill="#263238"/>
<path d="M110.232 214.85C110.232 214.85 104.872 220.91 103.762 244.08C103.762 244.08 119.032 246.98 119.312 246.15C119.592 245.32 110.232 214.85 110.232 214.85Z" fill="#5ABAB6"/>
<g opacity="0.3">
<path opacity="0.3" d="M110.232 214.85C110.232 214.85 104.872 220.91 103.762 244.08C103.762 244.08 119.032 246.98 119.312 246.15C119.592 245.32 110.232 214.85 110.232 214.85Z" fill="black"/>
</g>
<path d="M112.712 282.34H159.602L158.842 275.01C158.842 275.01 153.482 247.15 153.522 246.78L154.362 245.01C155.458 242.712 156.044 240.204 156.08 237.658C156.117 235.112 155.602 232.589 154.572 230.26L177.572 222.41L171.952 203.47C161.532 205.22 145.782 207.19 145.782 207.19L143.442 207.38C143.442 207.38 127.182 208.23 126.832 208.27C120.032 209.1 112.122 209.62 109.232 216.9C107.682 220.79 109.152 226.63 111.682 232.65L117.682 251.15C120.082 261.32 116.252 260.83 114.142 271.07C113.802 272.61 112.682 280.92 112.712 282.34Z" fill="#5ABAB6"/>
<g opacity="0.3">
<path opacity="0.3" d="M112.712 282.34H159.602L158.842 275.01C158.842 275.01 153.482 247.15 153.522 246.78L154.362 245.01C155.458 242.712 156.044 240.204 156.08 237.658C156.117 235.112 155.602 232.589 154.572 230.26L177.572 222.41L171.952 203.47C161.532 205.22 145.782 207.19 145.782 207.19L143.442 207.38C143.442 207.38 127.182 208.23 126.832 208.27C120.032 209.1 112.122 209.62 109.232 216.9C107.682 220.79 109.152 226.63 111.682 232.65L117.682 251.15C120.082 261.32 116.252 260.83 114.142 271.07C113.802 272.61 112.682 280.92 112.712 282.34Z" fill="black"/>
</g>
<path d="M177.31 222.72C176.993 222.899 176.658 223.043 176.31 223.15C175.65 223.39 174.68 223.72 173.48 224.15C171.08 224.96 167.74 226.03 164.06 227.21C160.38 228.39 157.06 229.56 154.76 230.52C153.58 231 152.65 231.42 152 231.7C151.685 231.875 151.349 232.009 151 232.1C151.29 231.869 151.606 231.671 151.94 231.51C152.57 231.18 153.48 230.7 154.64 230.18C157.672 228.859 160.773 227.704 163.93 226.72C167.62 225.54 170.93 224.52 173.4 223.8C174.61 223.44 175.6 223.16 176.28 222.97C176.612 222.844 176.958 222.76 177.31 222.72V222.72Z" fill="#263238"/>
<path d="M174.59 212.63C174.59 212.77 160.72 212.89 143.59 212.89C126.46 212.89 112.59 212.77 112.59 212.63C112.59 212.49 126.45 212.37 143.59 212.37C160.73 212.37 174.59 212.49 174.59 212.63Z" fill="#C7C7C7"/>
<path d="M176 221.84C176 221.98 160.57 222.1 141.54 222.1C122.51 222.1 107.09 221.98 107.09 221.84C107.09 221.7 122.51 221.58 141.54 221.58C160.57 221.58 176 221.7 176 221.84Z" fill="#C7C7C7"/>
<path d="M111 232.32C110.063 232.574 109.088 232.662 108.12 232.58C107.155 232.662 106.184 232.574 105.25 232.32C106.184 232.066 107.155 231.978 108.12 232.06C109.088 231.978 110.063 232.066 111 232.32V232.32Z" fill="#C7C7C7"/>
<path d="M156.001 232.64C156.001 232.78 145.911 232.9 133.471 232.9C121.031 232.9 110.941 232.78 110.941 232.64C110.941 232.5 121.021 232.38 133.471 232.38C145.921 232.38 156.001 232.49 156.001 232.64Z" fill="#C7C7C7"/>
<path d="M155.001 243.43C155.001 243.58 145.941 243.69 134.781 243.69C123.621 243.69 114.551 243.58 114.551 243.43C114.551 243.28 123.601 243.17 134.781 243.17C145.961 243.17 155.001 243.29 155.001 243.43Z" fill="#C7C7C7"/>
<path d="M154.723 253.44C154.723 253.58 146.522 253.7 136.402 253.7C126.282 253.7 118.062 253.58 118.062 253.44C118.062 253.3 126.272 253.18 136.402 253.18C146.532 253.18 154.723 253.29 154.723 253.44Z" fill="#C7C7C7"/>
<path d="M156.329 261.53C156.329 261.68 147.549 261.79 136.719 261.79C125.889 261.79 117.109 261.68 117.109 261.53C117.109 261.38 125.889 261.27 136.719 261.27C147.549 261.27 156.329 261.39 156.329 261.53Z" fill="#C7C7C7"/>
<path d="M158.87 271.85C158.87 272 148.87 272.11 136.56 272.11C124.25 272.11 114.25 272 114.25 271.85C114.25 271.7 124.25 271.59 136.56 271.59C148.87 271.59 158.87 271.71 158.87 271.85Z" fill="#C7C7C7"/>
<path d="M117.373 250.28C117.184 249.998 117.042 249.687 116.952 249.36L115.952 246.8C115.122 244.64 113.953 241.66 112.753 238.33C111.553 235 110.543 231.96 109.913 229.73C109.603 228.61 109.363 227.73 109.233 227.07C109.136 226.744 109.079 226.409 109.062 226.07C109.525 227.231 109.926 228.416 110.263 229.62C110.983 231.82 112.033 234.84 113.263 238.16C114.493 241.48 115.573 244.48 116.263 246.68C116.633 247.78 116.912 248.68 117.092 249.3C117.227 249.613 117.321 249.943 117.373 250.28V250.28Z" fill="#263238"/>
</svg>
